<?xml version="1.0" encoding="utf-8"?>
<!-- Generator: Adobe Illustrator 27.2.0, SVG Export Plug-In . SVG Version: 6.00 Build 0)  -->
<svg version="1.1" id="Layer_1" xmlns="http://www.w3.org/2000/svg" xmlns:xlink="http://www.w3.org/1999/xlink" x="0px" y="0px"
	 viewBox="0 0 512 512" style="enable-background:new 0 0 512 512;" xml:space="preserve">
<style type="text/css">
	.st0{fill:#792EE5;}
</style>
<g>
	<path d="M19.35,289.34L0,278.23l0-22.29l0-22.29l19.25-11.05c10.59-6.08,19.38-11.05,19.55-11.05c0.16,0,8.91,4.97,19.43,11.05
		l19.14,11.05l0,22.29l0,22.29L63.84,286c-7.44,4.27-16.14,9.28-19.33,11.12l-5.8,3.34L19.35,289.34L19.35,289.34z M46.04,255.4
		l-4.55-4.42l1.97-8.35c1.08-4.59,1.93-8.46,1.89-8.6c-0.04-0.13-4.18,3.86-9.19,8.88l-9.11,9.13l4.56,4.4l4.56,4.4l-1.97,8.27
		c-1.08,4.55-1.97,8.46-1.97,8.69c0,0.23,4.13-3.72,9.18-8.78l9.18-9.2L46.04,255.4z M347.32,286.91c-1.9-0.46-4.49-1.73-5.76-2.84
		c-0.61-0.53-1.23-1.58-1.87-3.18l-0.95-2.38l3.05-0.08l3.05-0.08l1.34,1.38c1.5,1.54,2.67,2,5.13,1.99
		c3.59-0.01,5.88-2.36,5.89-6.04l0-1.14l-2.02,1c-1.92,0.95-2.15,1-4.84,0.98c-2.21-0.01-3.16-0.15-4.39-0.63
		c-7.75-3.05-10.51-12.6-5.68-19.62c1.29-1.87,4.05-3.88,6.3-4.58c3.2-1,7.13-0.58,9.52,1l1.09,0.72v-0.99v-0.99h3.08h3.08l0,13.25
		c0,13.96-0.06,14.7-1.33,17.18c-0.65,1.26-2.89,3.48-4.22,4.17C355.45,287.27,350.51,287.68,347.32,286.91L347.32,286.91z
		 M353.35,270.42c2.6-1.09,4.13-3.54,4.13-6.63c0-2.25-0.52-3.55-1.98-4.98c-2.84-2.78-7.58-2.44-9.98,0.71
		c-2.67,3.5-1.26,9.11,2.71,10.83C349.46,270.88,352.16,270.92,353.35,270.42z M495.89,286.9c-1.93-0.47-4.05-1.48-5.52-2.65
		c-0.81-0.64-1.28-1.4-2.03-3.29l-0.98-2.45l3.05-0.08l3.05-0.08l1.34,1.38c1.5,1.54,2.67,2,5.13,1.99
		c3.59-0.01,5.88-2.36,5.89-6.04l0-1.14l-1.97,0.98c-6.27,3.11-14.07-0.26-16.62-7.19c-0.8-2.16-0.85-6.55-0.11-8.69
		c2.56-7.33,11.43-10.81,17.62-6.9l1.07,0.68v-0.98v-0.98h3.1h3.1l-0.08,13.81c-0.08,13.67-0.09,13.82-0.73,15.41
		c-0.75,1.86-2.7,4.15-4.37,5.13C504.34,287.25,499.4,287.74,495.89,286.9L495.89,286.9z M501.96,270.42
		c2.6-1.09,4.13-3.54,4.13-6.63c0-2.42-0.56-3.66-2.39-5.28c-2.89-2.54-7.38-2.04-9.64,1.08c-2.57,3.55-1.15,9.06,2.78,10.76
		C498.06,270.88,500.77,270.92,501.96,270.42z M137.94,286.82c0-0.14,1.01-2.64,2.25-5.57l2.25-5.31l-5.19-12.02
		c-2.86-6.61-5.19-12.12-5.19-12.25c0-0.13,1.46-0.23,3.24-0.23h3.24l0.54,1.19c0.29,0.66,1.83,4.44,3.42,8.41
		c1.59,3.97,2.95,7.22,3.03,7.22c0.08,0,1.72-3.75,3.65-8.34l3.51-8.34l3.15-0.08c1.73-0.04,3.15,0.03,3.15,0.15
		c0,0.13-3.33,8.11-7.4,17.74l-7.4,17.51l-3.11,0.08C139.32,287.04,137.94,286.97,137.94,286.82z M191.21,276.72
		c-2.42-0.78-3.91-1.66-5.49-3.24c-2.47-2.47-3.76-5.65-3.76-9.31c-0.01-5.47,3.4-10.3,8.64-12.24c2.27-0.84,7.08-0.84,9.35,0
		c8.02,2.98,11.12,12.39,6.45,19.61c-1.67,2.58-4.35,4.5-7.43,5.32C196.93,277.4,193.1,277.33,191.21,276.72z M198.55,270.62
		c3.71-1.86,4.97-7.13,2.53-10.61c-1.26-1.8-3.13-2.79-5.5-2.9c-1.76-0.09-2.17,0-3.53,0.71c-4.87,2.56-5.21,9.32-0.64,12.47
		C193.5,271.72,196.12,271.84,198.55,270.62z M237.89,276.76c-5.57-1.98-8.83-6.64-8.83-12.59c0-8.66,7.77-14.74,16.07-12.58
		c2.27,0.59,3.71,1.39,5.42,3.01c1.37,1.29,3.18,4.23,3.18,5.16c0,0.29-0.7,0.38-3.15,0.38h-3.15l-0.78-0.98
		c-1.14-1.43-2.64-2.1-4.68-2.1c-5.59,0-8.57,6.48-5.33,11.59c1.19,1.88,2.92,2.79,5.3,2.77c2.27-0.01,3.82-0.7,4.94-2.17l0.75-0.98
		h3.05c2.26,0,3.05,0.09,3.04,0.35c0,0.19-0.6,1.47-1.33,2.85c-1.47,2.77-2.64,3.81-5.6,4.96
		C244.55,277.3,239.9,277.47,237.89,276.76z M103.52,258.81l0.07-18.16l8.13,0.01c7.7,0.01,8.23,0.05,9.95,0.65
		c3.58,1.25,5.97,3.37,7.48,6.65c1.11,2.4,1.27,6.4,0.36,8.89c-1.48,4.09-4.49,6.77-8.88,7.91c-1.11,0.29-3.03,0.42-6.17,0.42h-4.57
		v5.89v5.89h-3.23h-3.23L103.52,258.81z M120.27,258.64c2.36-1.25,3.37-2.92,3.36-5.56c-0.01-2.13-0.66-3.71-1.99-4.83
		c-1.66-1.4-2.38-1.56-7.25-1.56h-4.5v6.33v6.33l4.7-0.1C118.51,259.17,119.45,259.07,120.27,258.64z M166.82,261.83v-15.14h-6.17
		h-6.17v-3.08v-3.08h15.42h15.42v3.08v3.08h-6.17h-6.17v15.14v15.14h-3.08h-3.08V261.83z M257.38,258.73V240.5l3.01,0.08l3.01,0.08
		l0.08,6.52l0.08,6.52l1.38-0.95c2.66-1.83,6.49-2.07,9.77-0.6c2.04,0.92,3.45,2.36,4.5,4.59l0.74,1.58l0.09,9.32l0.09,9.32h-3.1
		h-3.1v-8.04c0-7.58-0.03-8.11-0.58-9.25c-0.75-1.56-1.94-2.39-3.64-2.55c-2.8-0.27-4.62,0.66-5.62,2.87
		c-0.46,1.01-0.52,1.98-0.52,9.05l-0.01,7.92h-3.08h-3.08L257.38,258.73z M405.43,276.52c-2.73-0.73-4.88-2.68-5.64-5.13
		c-0.18-0.57-0.38-3.96-0.46-7.67l-0.14-6.66h-2.35h-2.35v-2.8v-2.8h2.65h2.65l0.08-3.15l0.08-3.15l2.38-0.9
		c3.62-1.37,3.36-1.61,3.36,3.13v4.07h3.37h3.37l-0.08,2.73l-0.08,2.73L409,257l-3.29,0.08v6.19v6.19l0.95,0.95
		c0.91,0.91,1.05,0.95,2.94,0.95h1.99v2.63c0,2.14-0.08,2.67-0.44,2.8C410.35,277.1,407,276.94,405.43,276.52L405.43,276.52z
		 M417.55,267.36l0.07-9.6l3.01-0.08l3.01-0.08v-3.1v-3.1l4.28,0.11c3.62,0.09,4.52,0.21,5.89,0.75c2.24,0.89,4.46,2.98,5.6,5.31
		l0.92,1.86l0.09,8.77l0.09,8.77h-3.1h-3.1l0-7.08c0-4.32-0.12-7.52-0.31-8.2c-0.41-1.46-2.29-3.35-3.75-3.75
		c-0.62-0.17-2.35-0.31-3.85-0.31l-2.73,0v9.67v9.67h-3.09h-3.09L417.55,267.36z M459.26,267.29v-9.67h3.08h3.08v-3.11v-3.11
		l4.28,0.12c5.36,0.15,6.84,0.64,9.2,3c1.75,1.76,2.65,3.4,3.07,5.61c0.16,0.83,0.28,4.95,0.28,9.17v7.67h-3.07h-3.07l-0.09-7.5
		c-0.09-7.4-0.1-7.52-0.79-8.75c-0.39-0.69-1.25-1.63-1.92-2.1c-1.16-0.82-1.36-0.86-4.56-0.95l-3.34-0.1v9.7v9.7h-3.08h-3.08
		V267.29z M212.8,264.07v-12.62h3.07h3.07l0.09,1.16l0.09,1.16l0.92-0.77c1.25-1.05,3.1-1.56,5.72-1.56h2.2v2.78v2.78l-2.78,0.1
		c-3.07,0.11-3.79,0.42-4.99,2.19c-1.06,1.55-1.19,2.69-1.19,10.17l0,7.22h-3.08h-3.08V264.07z M299.44,258.6v-18.09h3.22h3.22
		v15.14v15.14h8.13h8.13v2.94v2.94h-11.36h-11.36V258.6z M326.92,264.07v-12.62H330h3.08v12.62v12.62H330h-3.08V264.07z
		 M368.98,258.6v-18.09h3.08h3.08v6.57v6.57l1.42-0.96c1.94-1.31,3.13-1.61,5.89-1.48c3.95,0.18,6.67,1.89,8.32,5.26l0.77,1.56
		l0.09,9.32l0.09,9.32h-3.1h-3.1v-8c0-7.41-0.04-8.08-0.55-9.09c-2.03-3.99-8.22-3.48-9.5,0.78c-0.21,0.71-0.33,3.73-0.33,8.7v7.61
		h-3.08h-3.08V258.6z M446.64,264.07v-12.62h3.08h3.08v12.62v12.62h-3.08h-3.08V264.07z M326.92,243.6v-3.08H330h3.08v3.08v3.08H330
		h-3.08V243.6z M446.64,243.6v-3.08h3.08h3.08v3.08v3.08h-3.08h-3.08V243.6z"/>
	<path class="st0" d="M19.35,289.34L0,278.23l0-22.29l0-22.29l19.25-11.05c10.59-6.08,19.38-11.05,19.55-11.05
		c0.16,0,8.91,4.97,19.43,11.05l19.14,11.05l0,22.29l0,22.29L63.84,286c-7.44,4.27-16.14,9.28-19.33,11.12l-5.8,3.34L19.35,289.34
		L19.35,289.34z M46.04,255.4l-4.55-4.42l1.97-8.35c1.08-4.59,1.93-8.46,1.89-8.6c-0.04-0.13-4.18,3.86-9.19,8.88l-9.11,9.13
		l4.56,4.4l4.56,4.4l-1.97,8.27c-1.08,4.55-1.97,8.46-1.97,8.69c0,0.23,4.13-3.72,9.18-8.78l9.18-9.2L46.04,255.4z"/>
</g>
</svg>
